<?xml version="1.0" encoding="utf-8"?>
<!-- Generator: Adobe Illustrator 25.2.1, SVG Export Plug-In . SVG Version: 6.00 Build 0)  -->
<svg version="1.1" id="Layer_1" xmlns:serif="http://www.serif.com/"
	 xmlns="http://www.w3.org/2000/svg" xmlns:xlink="http://www.w3.org/1999/xlink" x="0px" y="0px" viewBox="0 0 484.8 126.2"
	 style="enable-background:new 0 0 484.8 126.2;" xml:space="preserve">
<style type="text/css">
	.st0{fill:url(#SVGID_1_);}
	.st1{fill-rule:evenodd;clip-rule:evenodd;fill:#292D3D;}
	.st2{fill:#292D3D;}
</style>
<g>
	<g>
		<linearGradient id="SVGID_1_" gradientUnits="userSpaceOnUse" x1="97.5617" y1="4.1714" x2="50.023" y2="134.7829">
			<stop  offset="0" style="stop-color:#F59C00"/>
			<stop  offset="1" style="stop-color:#FF5B00"/>
		</linearGradient>
		<path class="st0" d="M143.3,69.5C143.3,31.1,112.2,0,73.8,0S4.3,31.1,4.3,69.5c0,23.4,11.6,44.1,29.3,56.7h80.3
			C131.7,113.6,143.3,92.9,143.3,69.5z"/>
	</g>
	<g>
		<path class="st1" d="M67.6,126h-2.9c-0.1-1,0.6-2.3,0.1-6.2c-0.4-2.5-0.7-5-0.8-7.6c-0.5-5-1.4-8.7-1.8-9.1
			c-0.4-0.3-0.7-0.3-1-0.1c-0.5,0.1-0.5,2.7-0.2,6.6c0.5,1.4,0.8,3.5,0.1,6.8c-0.2,3.3-0.2,6.4,0.3,9.6c0,0-2.9,0-3.6,0
			c-0.2,0,0.6-6.4,0.6-6.4c0.2-3.3-0.1-5.8-0.9-7.6v-2.8c-1.3-2.6-2.2-5.4-2.8-8.4c-2.6-4.3-3.9-9-4.4-14c-0.5-5.4-0.2-10.5,2-14.9
			c0.4-2.4,3.4-3.5,3.6-7c-1.3-1.2-2-2.6-1.8-4.6c0.9-0.1,1.9,0.5,3,1.3c0.6,0.5,1.3,0.7,2,0.9c0-0.4-0.3-0.8-0.8-1.1
			c-1-0.3-1.6-0.8-2.3-1.5c-2-1.7-3.8-3.4-5.7-5.2c-1.3-1.3-2.7-2.5-4.4-3.3c-2.5-0.4-5.2-0.3-8,0c-0.5,0.2-1,0.2-1.5-0.1
			c-0.8-0.1-1.3-0.2-1.5-0.6c0.5-0.3,2.2,0.2,3.2,0c0.5-0.3,1.3-0.3,2.1-0.3c0.5-0.2,0.6-0.7,0.6-1.3c-0.3-0.2-0.2-0.7-1-1.9
			c1.5,1.2,1,1.1,1.5,1.5c0.8,0.7,1.5,1.1,1.9,1.3c0.8,0.2,1.5,0.2,2.1-0.1c0.5,0,0.8-0.2,0.8-0.7c-0.1-1.1-0.1-2,0.1-3.1
			c0.1-0.7,0.6-0.3,0.9-3c0.5,0.4,0.4,1.7-0.1,2.6c-0.3,0.6-0.1,3,0,4.6c0.6,1,2,2.3,4.4,3.9c0.8,0.6,1.6,1,2.9,1
			c0.9-0.7,1.2-2,1.2-3.6c0.4-1.2,0.5-2.6,0.4-4.1c-3.6-1.4-5.3-2.6-5.8-3.7c1.7,0.9,3.4,1.8,5.4,2.3l0.3-0.2l0.1-0.5
			c-3.8-4.8-4.7-6.4-4.6-7c0.9,0.8,1.8,1.7,3.4,3.9c0.7,0.8,1.4,1.9,2.4,3.2c1.2,1.8,2.2,2.3,3,2.4c1,0.1,1.5-1.4,1.8-2.6
			c0.3-1.3-1.1-5-0.3-6.1c0.1,1,0.4,2.4,0.9,2.9c0,0,0.1,1.5,0.7,2.8c-0.2,1.9-1.8,3.4-1.9,5c-0.2,2.6,0.8,4.5,3.2,5.8
			c1.5-0.9,2.3-2.1,2.5-3.7c0.2-1.3-1.2-4.6-0.1-5.2c0.3,1.9,1.4,4.5,1.2,6.1c-0.2,1.6-1.7,3.4-3.3,4.9c-0.1,0.6,0.1,1.2,0.1,1.8
			c0,0.4-0.1,0.9,0,1.3c0.4,0.7,1,1,1.8,0.7c1.6-0.5,2.6-1.5,2.8-3.1c0.2-1.3-0.1-2.6-0.5-3.9c1.2,1,1.7,1.8,1.8,4.9
			c0.2,0.4,1.1-0.3,2.1-1.6c-0.4,2.3-1.5,4.3-5.2,5.3c-0.5,0.5,0.4,1,1.9,1.6c1.2,0.5,2.4,1.3,4.1,1.8c1,0.6,1.6,1.1,1.4,1.7
			c-0.2,0.3-1.1,0.8-1.2,1.1l-0.3,0.8c-0.3,0.9-0.6,1-2.3,1c-0.9,0-1.6,0.2-2.4,0.7c-0.7,0.5-1.3,1-3.5,1.3
			c-0.3,0.1-0.7,0.4-0.9,0.7c-0.2-0.6-0.1-1.1,0-1.7c-0.6,0.3-0.9,0.3-1.2,0.9c-0.6,1.6,0.8,3.9,4.4,6.4c1.7,1.3,4.5,1.7,8.3,1.4
			c2.7-0.2,3.8-0.3,5.7,0c1.2,0.2,5.3,3.8,8,4.5c1.7,1.3,3.1,2.7,3,4.9c0.1,2.2-0.3,3.6-1.7,7.6c-0.9,5.2-0.6,7.5,1.2,12.2
			c0.7,1.6,1.1,2,1.2,2.8c0.2,1.1,0,1.8,0.4,2.7c0.2,1.2,0.9,2.9,0.9,5c0.1,2,0.2,3.7,0.7,5.3h-2.8c-0.1-0.3-0.1-0.9-0.1-1.3
			c0.3-2.7-0.1-6.3-1-7.6c-0.2-1.3-1.2-3-3-4.8c-0.7-0.7-1.2-2-1.9-1.7c-0.7,0.3,1.4,2.2,1.2,2.8c-0.3,1.7-0.5,3.4-0.6,5.2
			c-0.1,2.5-0.2,4.9,0,7.4h-3.6c0.2-0.2,0.1-0.4,0.2-0.6c1.8-1.9,1.1-6.7,1.6-10.3c0.2-1.5-3.2-4.8-5.6-7.5
			c-1.5-1.3-2.7-3.4-3.8-5.3c-2.2,0.5-6.1,0.1-8.6,0.6c-0.9,1.2,1,1.6-1.1,7.4c0.4,2.3,0.7,4.7,0.6,7.3c-0.3,1.9-0.5,3.9-0.4,6.2
			C67,124.2,67.6,125.2,67.6,126L67.6,126z M57.4,48.2l-0.5,0.2c0,0,0,1.7,0.1,3.1c0.1,1.4-0.4,3.5-0.6,4.1c-0.1,0.6-0.5,2.2,1,3.5
			s1.9,1.7,3.2,2.1c1.3,0.4,1.7,0.3,2-1c0.3-1.3-0.3-3.4-0.4-3.9c-0.1-0.5-2-5.2-3-6.5C58.1,48.5,57.6,48.4,57.4,48.2z"/>
		<g>
			<g>
				<path class="st2" d="M124.5,38.7c-1.2-1.2-0.9-4.7-2.8-7c-1.7-2.1-2.6-1.8-2.9-2.2c-0.3-0.4,0.1-4-1.9-4c-1.4,0-1.4,0.5-1.3,0.8
					c0.1,0.6,1.4,0.2,1.5,2.2c0,0.5-0.2,1.2-1.4,1.2c-1-1-7-3.4-2.1,1.1c-3.2,2.8-6.8,7-13.2,21.4c-2.9,5.6-6.1,5-9.7,11.3
					c-1.9,3.4-2.9,7-8.3,7.6C77,71.7,69.5,72.6,68.5,80c-1.1,7.3-1.9,12.2-3.3,15.6c-1.3,2.4-2.2,4.5,0.9,10.1
					c-0.4-3.3,1.1-3.4,1.3-7c0.2-3.6-1.3-2.6-0.7-4.1c0.5-1.5,3.3-12.3,3.3-12.3s0.7,8,1.3,10.6c0.7,2.7,0.1,6.7-0.7,8
					c-0.7,1.3-0.2,3.4,0.1,7.2c0.4,3.8,0.8,11.8,0.8,11.8s-0.3,1.6,0.4,2.8c0.7,1.1,0.4,3.4,0.4,3.4h4.7c0,0-3.4-2.7-3.1-6.6
					c0.3-3.9,0.1-15,1.8-18.5c1.7-3.5,3-6.9,4.3-11.4c2.6,0.8,7.8,1.5,12-1.2c0.6,4.1,1.7,9.3,1.6,13.2c-1.2,2.1-0.7,5.4,0,6.2
					c0,1.8,0.3,12.1,0.3,12.1s-1.2,1.6,0,3.5c-0.1,1.1-0.5,2.8-0.5,2.8h5.2l-2.4-2.9c0,0,1.1-1.6,0.1-3.4c-0.4-2.8-0.2-12-0.2-12
					s1.7-3.4,0.1-6.4c0.1-3.4,1.7-12.8,3.6-14.9c1.9-2.1,2.5-3.3,3.1-5.5c0.6-2.2,0.4-6.3,0.7-8c0.3-1.7,4.9-8.9,7.5-25.9
					c0.5-3.4,2.1-7.7,3.6-8.3c1.5-0.6,1.9,0.6,3.1,1.3c1.2,0.6,3.4,0.7,4,1.1c0.7,0.4,2.9,2.7,4,1.7
					C127.1,41.9,125.7,39.9,124.5,38.7z"/>
			</g>
		</g>
	</g>
	<path class="st2" d="M31.7,73.7c-0.1,0.1-0.4,0.3-0.6,0.6c-0.6,0.7-0.7,0.8-1.7,0.7c-0.4,0-0.5,0-0.7,0.1c-0.3,0.1-0.7,0.5-0.9,0.9
		c-0.1,0.2-0.2,0.3-0.3,0.4c-0.2,0.1-0.4,0.1-0.4,0c0.1-0.2-0.4,0.1-0.8,0.4c-0.4,0.4-0.6,0.8-0.5,1.1c0,0.1,0,0.3,0,0.5
		c-0.1,0.4,0.1,0.6,1,0.8c0.3,0.1,0.6,0.2,0.7,0.2c0.2,0.1,0.2,0.2-0.5,0.6c-0.7,0.5-0.8,0.6-1.1,1.1c-0.3,0.5-0.8,1.1-1.3,1.4
		c-0.2,0.1-0.7,0.4-1.2,0.7c-0.4,0.2-0.9,0.5-1,0.7c-0.1,0.1-0.4,0.4-0.6,0.6c-0.7,0.6-0.7,0.9-0.2,1.8c0.5,0.7,0.6,1.1,0.4,1.3
		c-0.1,0.1-0.1,0.1-0.7-0.1l-0.6-0.2v0.1c0,0.1,0,0.1,0.3,0.2c0.6,0.1,1,0.3,1,0.6c0,0.1,0,0.1-0.4,0.1c-0.3,0-0.4,0-0.4-0.1
		c0,0,0,0-0.1,0c0,0-0.3,0.1-0.5,0.1c-0.3,0-0.5,0.1-0.5,0.2c-0.1,0.1-0.1,0.1,0,0.1c0.1,0,0.3,0,0.6-0.1c0.6-0.1,1.3-0.1,1.4,0
		c0.1,0,0.1,0.2,0.2,0.3c0,0.1,0.2,0.4,0.2,0.5l0.2,0.3l-0.2,0.1c-0.2,0.1-0.2,0.2-0.2,0.7c0,0.3,0,0.6,0.1,0.9
		c0.1,0.4,0.5,1,0.8,1.4c0.2,0.3,0.2,0.3,0.4,0.3c0.2,0,0.2,0,0.2,0.1c0,0.1,0.1,0.1,0.2,0.1c0.1,0,0.1,0,0.1-0.1c0-0.1,0-0.1,0-0.1
		c0,0,0.1,0.1,0.2,0.1c0.1,0,0.2,0,0.2-0.1c0.1-0.2,0.2-0.2,0.2-0.1c0,0.2,0.1,0.1,0.2-0.2c0.2-0.3,0.3-0.4,0.6-0.5
		c0.3,0,0.3,0,0.2,0.1c-0.2,0.2-0.3,0.5-0.3,0.7c0,0.2,0.2,0.6,0.4,0.7c0.1,0,0.1,0.2,0.1,0.5c0,0.5,0.2,0.9,0.4,1
		c0.1,0.1,0.1,0.1,0.1-0.1c-0.1-0.3,0-1.2,0.1-1.1c0,0,0.1,0.3,0.1,0.6c0.1,0.7,0.4,1.3,0.7,1.7c0.1,0.2,0.3,0.4,0.5,0.6l0.4,0.3
		l-0.4,0.2c-0.2,0.1-0.4,0.2-0.5,0.3c-0.1,0.1,0,0.1,0.1,0.2c0.1,0,0.3,0,0.6,0c0.2-0.1,0.4-0.1,0.4-0.1c0,0-0.1,0.2-0.2,0.5
		c-0.5,0.9-0.6,1.5-0.5,2.2c0.1,0.6,0.3,1,0.9,1.9c0.3,0.5,0.6,0.8,0.6,0.8c0,0-0.1-0.8-0.3-1.2c-0.1-0.2-0.2-0.4-0.2-0.5
		c0-0.1,0.2,0.4,0.5,0.9c0.1,0.3,0.3,0.7,0.4,0.8c0.1,0.3,0.5,0.6,0.5,0.6c0,0-0.1-0.4-0.4-0.8c-0.2-0.4-0.4-0.8-0.4-0.8
		c0,0,0.1,0,0.1,0h0.1l-0.2-0.2c-0.4-0.6-0.6-1.7-0.3-2.3c0.1-0.1,0.1-0.3,0.1-0.3c0,0,0,0.4,0,0.9c0,0.8,0,0.9,0.1,1.3
		c0.1,0.2,0.2,0.5,0.3,0.6c0.1,0.1,0.2,0.4,0.4,1c0.3,1.2,0.4,1.3,0.7,2c0.2,0.3,0.3,0.6,0.3,0.6c0,0,0.1,0,0.1,0
		c0.1,0,0.1-0.1,0-0.4c-0.2-0.5-0.2-1.2-0.2-1.9c0.1-0.6,0.3-1.5,0.4-1.5c0.1,0,0.2,0.7,0.1,0.9c-0.1,0.6-0.1,1.6,0.1,1.8
		c0.1,0.1,0.2-0.1,0.2-0.4l0-0.3l0.2,0.4c0.1,0.2,0.3,0.7,0.5,1c0.2,0.3,0.4,0.8,0.5,1c0.3,0.8,0.5,1.1,0.5,1.1c0,0,0,0,0-0.1
		c-0.1-0.3-0.5-1.9-0.4-1.9c0,0,0.3,0.9,0.5,1.4c0,0.1,0.1,0.2,0.1,0.2c0.1,0,0.1-0.3,0.1-0.5c0-0.1,0-0.2,0.1-0.2
		c0.1-0.1,0.1,0,0.1,0.3c0,0.2,0.1,0.4,0.2,0.6c0.1,0.2,0.3,0.4,0.2,0.2c-0.1-0.2-0.1-0.6-0.1-0.8c0.1-0.3,0.1-0.1,0.1,0.3
		c0,0.4,0,0.6,0.1,0.8c0.1,0.3,0.5,0.8,0.6,0.8c0.1,0,0.1,0-0.3-0.9c-0.2-0.4-0.3-1-0.1-1c0,0,0.1,0.2,0.2,0.4
		c0.1,0.3,0.1,0.4,0.2,0.4c0.1,0,0.2,0.1,0.3,0.3c0.1,0.3,0.6,0.8,0.7,0.8c0,0,0-0.1,0-0.2c-0.1-0.2,0-0.2,0.2,0
		c0.4,0.5,0.6,1.5,0.3,2.4c0,0.1,0,0.1,0.1,0.1c0.1-0.1,0.2-0.3,0.3-0.6c0.1-0.3,0.1-0.3,0.1-0.1c0,0.1-0.1,0.4-0.2,0.6
		c-0.2,0.4-0.3,0.6-0.1,0.6c0,0,0.1-0.1,0.2-0.2c0.1-0.2,0.2-0.2,0.2-0.1c0,0-0.1,0.2-0.1,0.3c-0.1,0.1-0.1,0.3-0.1,0.4
		c0,0.2,0.2-0.1,0.4-0.6c0.1-0.3,0.3-0.5,0.3-0.6l0.1-0.1v0.2c0,0.1-0.1,0.3-0.2,0.5c-0.2,0.4-0.2,0.6-0.1,0.6c0,0,0.1,0,0.1-0.2
		c0-0.1,0-0.3,0.1-0.4c0.1-0.2,0.1-0.2,0.1-0.1c0.1,0.1,0.2,1.3,0.3,2c0,0.3,0.1,1,0.2,1.6l0.2,1.2l-0.1,1.2
		c-0.1,1.3-0.1,1.4,0.2,2.7c0.2,1,0.2,1.4-0.1,1.9l-0.2,0.3l-0.1-0.1c-0.2-0.1-0.9-0.3-1-0.2c-0.2,0.1-0.3,0.2-0.2,0.3
		c0.1,0.1,0,0.1-0.2-0.1c-0.1-0.1-0.6-0.1-1.1,0.1c-0.4,0.2-0.7,0.5-1,1.1c-0.2,0.3-0.3,0.5-0.4,0.5c-0.1,0-0.2,0.1-0.3,0.2
		c-0.3,0.4-0.1,1.2,0.4,1.5c0.2,0.1,0.3,0.1,0.4,0.1c0.1,0,0.1,0,0.1,0.1c0,0,0.1,0.2,0.3,0.4l0.3,0.3l0.4-0.1
		c0.2,0,0.6-0.1,0.8-0.1c0.4,0,0.5,0,0.4-0.1c0-0.2,0.3-0.2,0.5-0.1c0.2,0.2,0.5,0.2,0.7,0.1c0.1-0.1,0.1-0.1,0.1-0.2
		c0-0.1,0-0.1,0.1-0.1c0.1,0,0.1,0,0,0.1c0,0.2,0,0.2,0.7,0c0.3-0.1,0.7-0.1,0.9-0.1c0.2,0,0.3,0,0.4-0.1c0.1-0.1,0.2-0.2,0.3-0.2
		c0.4-0.2,0.4-0.3,0.4-0.6c0-0.4,0.4-1.5,0.7-2.1c0.4-0.7,0.6-1.5,0.7-2.6c0-0.4,0-0.7,0-0.8c-0.1-0.2-0.1-0.3,0.2-0.9
		c0.4-1,0.7-2.4,0.9-4.5l0.1-0.8l0.3-0.6c0.2-0.3,0.5-0.7,0.6-1l0.3-0.4l0,0.2c0,0.4,0.1,0.3,0.2-0.1c0-0.2,0.1-0.4,0.1-0.4
		c0,0,0.1,0.1,0.1,0.2c0.1,0.2,0.1,0.4-0.3,0.7c-0.4,0.4-0.4,0.5-0.6,1.1c-0.2,0.9-0.1,1.5,0.2,1.9c0.2,0.3,0.4,0.4,0.3,0.2
		c0-0.1,0-0.1,0-0.1c0,0,0.1,0.2,0.1,0.3l0,0.3l0.7,0.4c0.8,0.4,1.8,1,2.6,1.6c0.4,0.3,0.5,0.3,0.6,0.3c0-0.1,0.1-0.1,0.6,0
		c0.6,0.1,2.3,0.1,2.7,0c0.4-0.1,0.6-0.2,0.5-0.3c0,0,0-0.1,0-0.1c0.1,0,0.9-0.7,1.1-1c0.3-0.3,0.6-1,0.5-1.1c0,0-0.1-0.1-0.1-0.2
		c0-0.1,0-0.3-0.1-0.4c-0.1-0.3-0.3-0.4-0.4-0.3c-0.1,0.1-0.1,0.1-0.2,0c-0.2-0.1-0.2-0.1,0-0.2c0.1-0.1,0.1-0.1,0-0.2
		c-0.2-0.2-0.7-0.3-1.4-0.3c-0.5,0-0.7,0-1,0.1l-0.4,0.1l-0.4-0.2c-0.3-0.1-0.5-0.2-0.7-0.2c-0.3,0-0.3,0-0.4-0.1
		c0-0.1-0.1-0.3-0.1-0.4c0-0.4,0.3-0.8,1.3-1.8c0.8-0.8,1.2-1.3,1.1-1.4c-0.1-0.1,0-0.1,0.4-0.1c0.2,0,0.7-0.1,1.3-0.2
		c0.6-0.1,1-0.2,1.3-0.2c0.4,0,0.4,0,0.4-0.1c0-0.1,0.1-0.1,0.1-0.1c0.6,0.1,0.9,0.1,1.4,0c0.6-0.1,0.8-0.2,0.5-0.2
		c-0.1,0-0.2,0-0.2-0.1c0-0.1,0.2,0,0.4,0c0,0,0.2,0,0.2-0.1c0.3-0.2,0.6-0.3,1.1-0.4c0.5-0.1,2-0.2,2-0.2c0,0,0,0.1-0.1,0.2
		c0,0.1-0.1,0.2,0,0.2c0,0,0.1,0,0.1,0c0.1-0.2,0.3-0.4,0.4-0.4c0.1,0,0.1,0,0,0.2c-0.1,0.2-0.1,0.5,0,0.9c0.2,0.9,0.7,2,0.9,2.1
		c0.1,0,0.2,0.2,0.4,0.7c0.6,1.7,1.5,2.7,2.8,3.1c0.4,0.1,0.4,0.1,0.6,0.5c0.3,0.5,1.1,1.2,2,1.7c0.6,0.4,0.8,0.5,0.8,0.6
		c0,0.1,0.1,0.2,0.3,0.3c0.6,0.4,0.5,0.3,0.5,1.1c0,1.1-0.1,1.7-0.5,2.1c-0.2,0.3-0.7,0.5-1.1,0.5c-0.2,0-0.3,0-0.4-0.2
		c-0.2-0.2-0.2-0.2-0.5-0.2c-0.2,0-0.5,0.1-0.6,0.1c-0.3,0.1-0.3,0.1-0.3,0.2c0,0.1,0,0.1-0.2,0.1c-0.9-0.2-1.7,0.4-1.7,1.1
		c0,0.2,0,0.3-0.2,0.4c-0.2,0.2-0.2,0.2-0.2,0.4c0,0.2,0,0.3-0.1,0.3c-0.1,0.1-0.3,0.2-0.3,0.3c0,0,0.1,0.1,0.2,0.1
		c0.1,0,0.2,0,0.2,0.1c0.1,0.2,0.2,0.3,0.5,0.4c0.2,0.1,0.3,0.1,0.3-0.1c0,0,0-0.1,0.1-0.1c0,0,0.1,0,0,0.1c0,0,0,0.2,0,0.2
		c0.1,0.1,0.1,0.1,0.4,0.1c0.3,0,0.3,0,0.3,0.1c0,0.1,0,0.2,0.2,0.2c0.6,0.1,1.4,0,1.6-0.2c0.1-0.1,0.1-0.1,0.2,0
		c0.1,0.1,0.2,0.1,0.2,0c0-0.1,0-0.1,0.2-0.1c0.2,0,1.6-0.1,2.1-0.1c0.1,0,0.3-0.1,0.4-0.2c0.1-0.1,0.2-0.2,0.3-0.2
		c0.1,0,0.1,0,0.1-0.2l0-0.2l0.1,0.2c0.1,0.3,0.3,0.3,0.5,0.1c0.2-0.2,0.2-0.2,0.2-0.4c0-0.3,0-0.4-0.2-0.4c-0.1,0-0.1,0,0-0.1
		c0.1,0,0.1-0.1,0.1-0.2c0-0.1,0.4-0.9,0.6-1.2c0.1-0.2,0.5-0.6,0.8-1c0.6-0.7,0.8-1,1.1-1.5c0.1-0.2,0.4-0.6,0.7-1l0.5-0.7l0-0.5
		l0-0.5l-0.2-0.1c-0.4-0.3-1.4-1.3-1.8-1.8c-0.6-0.7-1.3-1.8-1.7-2.5c-0.2-0.5-0.3-0.6-0.2-0.7c0.1-0.1,0.1-0.2,0-0.3
		c-0.1-0.3-0.1-0.4,0-0.4c0.1,0,0.1-0.1,0.1-0.2c0-0.2,0-0.2,0.6-0.8c0.6-0.5,1.4-1.4,1.6-1.7c0-0.1,0.1,0,0.5,0.3
		c0.8,0.6,1.9,1.1,2.7,1.4c0.3,0.1,0.4,0.2,0.6,0.3c0.1,0.2,0.3,0.3,0.4,0.3c0.1,0,0.3,0.2,0.7,0.6c1.6,1.6,1.7,1.7,3.3,2.4
		c0.6,0.2,1.1,0.5,1.3,0.6c0.2,0.1,0.3,0.1,0.5,0.1c0.2,0,0.2,0,0.1,0c-0.1,0.1,0,0.1,0.1,0.4c0.2,0.3,0.5,0.6,1.4,1.2
		c0.8,0.6,0.9,0.7,1,1.5c0.1,0.6,0.2,0.8,0.5,1c0.5,0.2,0.6,0.4,0.9,0.9c0.2,0.3,0.3,0.6,0.4,0.7c0.3,0.2,0.7,1,0.6,1.3l0,0.2
		l-0.2-0.1c-0.3-0.2-0.8,0-0.6,0.2c0.2,0.2,0.1,0.3-0.1,0.2c-0.3,0-0.5,0.1-0.9,0.4c-0.3,0.4-0.4,0.5-0.2,0.7
		c0.1,0.1,0.1,0.1-0.1,0.3c-0.2,0.2-0.3,0.5-0.2,0.8c0.1,0.1,0.1,0.2,0,0.4c-0.1,0.3-0.1,0.4,0.2,0.5c0.5,0.3,0.9,0.3,1.5,0.3
		c0.5,0,0.6,0,1.1-0.2c0.4-0.1,0.7-0.2,0.9-0.2c0.3,0,0.3,0,0.4-0.1c0-0.1,0.2-0.1,0.2,0c0,0.1,0,0.1,0,0.1c0,0,0.2-0.1,0.3-0.3
		c0.1-0.2,0.3-0.3,0.3-0.3c0,0,0,0.1,0,0.2c0,0.2,0.1,0.2,0.2-0.1c0.1-0.2,0.2-0.3,0.2-0.1c0,0.2,0.1,0.2,0.5-0.1
		c0.7-0.5,0.7-0.8,0.1-1.9c-0.4-0.6-0.4-0.7-0.4-1c0-0.2,0-0.4-0.1-0.5c-0.1-0.1-0.1-0.4-0.2-0.7c0-0.3-0.1-0.5-0.1-0.6
		c0,0,0-0.3,0-0.5c0.1-1.7-0.5-3.2-1.7-3.7c-0.5-0.3-1.7-1.4-1.9-1.8c-0.1-0.2-0.2-0.3-0.3-0.4c-0.1-0.1-0.3-0.2-0.4-0.4
		c-0.1-0.2-0.4-0.5-0.5-0.7c-0.2-0.2-0.3-0.4-0.3-0.5c0-0.2-0.6-1.9-0.8-2.6c-0.2-0.4-0.6-1.4-1-2.2c-0.9-2-0.9-2.1-1-2.7
		c-0.1-0.7-0.3-1.3-1-2.6c-0.5-1-0.8-1.6-0.8-1.6c0,0,0.2,0,0.3,0.1c0.2,0,0.8,0.1,1.4,0.1c0.6,0,1.3,0.1,1.5,0.2
		c0.5,0.1,3.1,0.1,3.3-0.1c0,0,0.4-0.1,0.8-0.2c1.3-0.3,2.3-0.7,3.6-1.3l0.6-0.3l0.5-0.7c0.2-0.4,0.5-0.7,0.6-0.8
		c0.1-0.1,0.2-0.2,0.2-0.3c0-0.1,0.1-0.5,0.2-0.9c0.1-0.4,0.2-1,0.2-1.3c0.1-2.1-1.3-4.4-3.8-5.9c-1-0.6-1.9-1-3.1-1.2
		c-0.8-0.1-1.2-0.3-1.5-0.5c-0.1-0.1-0.3-0.1-0.4-0.1s-0.3,0-0.5-0.1c-0.2-0.1-0.3-0.1-0.3,0c0,0.1-0.1,0.1-0.3,0
		c-0.2,0-0.4-0.1-0.5-0.1c-0.1,0-0.2,0-0.2-0.1c0,0-0.2-0.1-0.3-0.1s-0.5,0-0.8,0c-0.4,0-0.6,0-0.6,0c0,0,0.1,0.1,0.1,0.1
		c0.2,0,0.1,0.1-0.4,0.2c-0.6,0.1-1.3,0.5-1.9,0.9c-0.4,0.3-0.5,0.3-0.3,0.3c0.1,0,0.2,0,0.2,0c0,0-0.3,0.3-0.8,0.6
		c-0.4,0.3-0.9,0.7-1,0.8c-0.2,0.2-0.3,0.2-0.1,0.2c0.2,0,0.2,0,0.1,0.1c0,0.1-0.2,0.1-0.3,0.2c-0.2,0.1-0.4,0.2-0.4,0.3
		c0,0,0.1,0,0.1,0c0.2-0.1,0.2-0.1,0.2,0c0,0-0.1,0.1-0.1,0.1c-0.1,0-0.5,0.3-0.4,0.3c0,0,0.5-0.2,0.6-0.3c0.1-0.1,0.2-0.1,0.1,0.1
		c0,0.1-0.1,0.2-0.3,0.3c-0.3,0.1-0.6,0.3-0.5,0.3c0,0,0.2-0.1,0.5-0.2c0.2-0.1,0.5-0.2,0.7-0.2c0.4,0,0.8,0,0.9,0.1
		c0,0.1,0.1,0.1,0.1,0.1c0,0,0.1,0.1,0,0.1c-0.1,0.1,0.5,0.2,1.1,0.2c1.1,0.1,1.7-0.2,3.5-1.1c1.1-0.6,2-0.9,2.7-0.9
		c0.1,0,0.3,0,0.4-0.1c0.1,0,0.3-0.1,0.5-0.1c1,0,2.3,0.6,3.4,1.8c1.5,1.4,2.2,3.1,1.8,4.4c-0.2,0.8-0.9,1.6-1.6,2
		c-0.9,0.5-1.8,0.8-2.7,0.8c-0.3,0-0.8,0-1.1,0.1c-0.7,0.1-1.5,0.1-2.3-0.1c-0.8-0.2-1.9-0.7-3.3-1.6c-1.2-0.7-3.6-2.1-5.1-2.8
		c-0.9-0.5-3.4-1.6-4-1.9c-0.2-0.1-1.9-0.5-3-0.7c-1.4-0.3-2.6-0.5-4.2-0.6c-1.4-0.1-2.4-0.1-5.1,0.2c-4.3,0.4-5.9,0.5-7,0.3
		c-0.8-0.1-1.4-0.4-1.3-0.6c0-0.1,0-0.1-0.1-0.3c-0.2-0.2-0.5-0.4-1-0.4c-0.2,0-0.3-0.1-0.3-0.1s0.2,0,0.4,0c0.3,0,0.4,0,0.4,0
		c0-0.1-0.2-0.1-0.4-0.1c-0.2,0-0.2,0-0.1-0.2c0.1-0.2,0.1-0.4,0-0.5c-0.1-0.1-0.1-0.1-0.1,0.1c0,0.2,0,0.4-0.1,0.4c0,0,0-0.1,0-0.2
		c0-0.2-0.1-0.5-0.4-0.8c-0.1-0.1-0.3-0.4-0.3-0.5c-0.1-0.1-0.1-0.2-0.3-0.3c-0.1,0-0.2-0.1-0.3-0.3c-0.2-0.5-1.3-0.6-1.6-0.2
		c-0.1,0.1-0.1,0.1,0.1,0c0.3-0.1,0.9-0.1,1.1,0.1c0.2,0.2,0.2,0.2,0,0.3c-0.2,0-0.2,0-0.3-0.1c-0.1-0.2-0.4-0.2-0.9-0.1
		c-0.5,0.1-0.6,0.1-0.6,0c0-0.1,1.1-0.6,1.4-0.6c0.2,0,0.3,0,0.5,0.1c0.3,0.2,0.3,0.1,0.1-0.2c-0.1-0.2-0.2-0.2-0.5-0.2
		c-0.3,0-0.5,0.1-1.1,0.4c-0.9,0.4-1.2,0.5-1.3,0.3c-0.1-0.1-0.1-0.1,0-0.1c0.1,0,0.1,0,0.1,0c0,0,0-0.1-0.1-0.1c0,0-0.1,0-0.1-0.1
		c0,0,0.1,0,0.3,0c0.3,0,0.4,0,0.4-0.1c0-0.1,0-0.1,0.1-0.1c0.1,0,0.2,0,0.3-0.1c0.1-0.1,0-0.1-0.5-0.1c-0.7,0-1.1,0-1.3-0.2
		c-0.3-0.2-0.2-0.3,0.1-0.2c0.6,0.3,1.3,0.3,1.7,0c0.2-0.1,0.2-0.2-0.2-0.1c-0.5,0.1-0.9,0.1-1.2,0c-0.1,0-0.2-0.1-0.2-0.1
		c0,0,0.2,0,0.4,0c0.3,0,0.5,0,0.9-0.1c0.3-0.1,0.5-0.2,0.5-0.2c0,0-0.2,0-0.5,0.1c-0.5,0.1-1.1,0.1-1.3,0c-0.2-0.1-0.4-0.4-0.4-0.6
		c0-0.1,0-0.1,0-0.1c0.1,0.2,0.2,0.1,0.5-0.4c0.3-0.5,0.4-0.8,0.3-1.2c-0.1-0.2-0.4-0.5-0.8-0.7c-0.4-0.2-0.4-0.2-0.2-0.3
		c0.1,0,0.3-0.2,0.5-0.3c0.1-0.1,0.3-0.2,0.4-0.2c0.1,0,0.3,0.1,0.4,0.2c0.2,0.2,0.1,0,0-0.2c-0.1-0.2-0.2-0.2-0.4-0.2
		c-0.1,0-0.4,0.1-0.7,0.2c-0.5,0.2-0.8,0.2-1.1,0.1c-0.4-0.1-0.5-0.3-0.8-1.5c-0.1-0.3-0.2-0.6-0.3-0.7c-0.1-0.1-0.1-0.3-0.1-0.2
		c0,0,0.1,0,0.1-0.1c0-0.1-0.5-0.8-0.8-1.1c-0.2-0.1-0.4-0.3-0.6-0.4c-0.4-0.2-0.4-0.3-0.2-0.2c0.1,0,0.1,0,0.1,0
		c0-0.1-0.2-0.3-0.6-0.3c-0.2-0.1-0.4-0.1-0.4-0.1c0,0,0-0.1,0.1-0.1c0.2-0.1,0-0.2-0.5-0.1c-0.7,0.1-0.9,0-1.2-0.6
		c-0.1-0.1-0.2-0.3-0.3-0.4c-0.1-0.1-0.2-0.3-0.3-0.4c-0.3-0.4-0.9-0.8-1.8-0.9c-0.7-0.1-1.2,0-1.8,0.2c-0.3,0.1-0.4,0.2-0.4,0.1
		c0,0,0-0.1,0.2-0.2c0.2-0.1,0.4-0.2,0.5-0.2l0.2-0.1l-0.2,0c-0.3,0-0.3,0-0.1-0.2c0.1-0.1,0.1-0.1,0.1-0.2c0-0.1,0-0.1-0.2,0.1
		c-0.2,0.2-0.9,0.5-1,0.5c0,0,0-0.1,0.2-0.1c0.2-0.1,0.6-0.4,0.6-0.5c0,0-0.2,0-0.4,0.1c-0.5,0.2-0.9,0.2-1.2,0
		c-0.3-0.2-0.7-0.3-1.2-0.3c-0.6,0-1,0.2-1.5,0.6c-0.2,0.2-0.4,0.3-0.4,0.3s0.2-0.2,0.4-0.4c0.3-0.3,0.3-0.4,0.3-0.4
		C32.2,73.6,31.9,73.6,31.7,73.7L31.7,73.7z M28.3,100.4c0.1,0.4,0.1,0.7,0.1,0.7c0,0-0.2-0.4-0.3-0.7c-0.1-0.4-0.1-1.3,0-1.4
		c0-0.1,0.1,0.1,0.1,0.4C28.1,99.5,28.2,100,28.3,100.4L28.3,100.4z M31.7,103c0,0.3,0,0.2-0.1-0.1c0-0.2,0-0.2,0-0.2
		C31.7,102.8,31.7,102.9,31.7,103z M31.8,103.5C31.7,103.5,31.7,103.5,31.8,103.5c0-0.2,0-0.2,0-0.2
		C31.8,103.3,31.8,103.4,31.8,103.5z"/>
	<path class="st2" d="M171.4,47.3c0.1-0.5,0.2-0.9,0.3-1.4c0.1-0.5,0.1-0.9,0.1-1.2c0-0.5-0.1-0.9-0.4-1.2c-0.2-0.3-0.6-0.4-1.1-0.4
		v-1h5.9v1c-0.4,0.1-0.6,0.2-0.9,0.4c-0.2,0.2-0.4,0.5-0.6,0.9c-0.2,0.4-0.4,1-0.7,1.9l-5.3,16.9h-3.4l-3.2-14.4l-3.8,14.4h-3.6
		l-4.3-17.2c-0.2-0.8-0.4-1.4-0.6-1.8c-0.2-0.3-0.3-0.6-0.5-0.7c-0.2-0.2-0.4-0.3-0.8-0.4v-1h7.6v1c-0.5,0.1-0.9,0.2-1.1,0.4
		c-0.2,0.2-0.4,0.6-0.4,1c0,0.5,0.1,1.4,0.4,2.5l2.5,10.7l4.1-15.7h3.2l3.3,15.7L171.4,47.3L171.4,47.3z"/>
	<path class="st2" d="M186.5,59.1c0,0.4,0,0.7,0,1c0,0.3,0.1,0.6,0.1,0.8c0.1,0.2,0.1,0.4,0.2,0.5c0.1,0.1,0.3,0.2,0.4,0.3
		c0.2,0.1,0.4,0.2,0.7,0.3v1h-7.5v-1c0.4-0.1,0.6-0.2,0.8-0.3c0.2-0.1,0.4-0.3,0.5-0.5c0.1-0.2,0.2-0.5,0.2-0.8c0-0.3,0-0.7,0-1.2
		V45.8c0-0.5,0-0.9,0-1.2c0-0.3-0.1-0.6-0.2-0.8c-0.1-0.2-0.3-0.4-0.5-0.5c-0.2-0.1-0.5-0.2-0.8-0.3v-1h7.5v1
		c-0.4,0.1-0.7,0.2-0.9,0.4c-0.2,0.1-0.3,0.3-0.4,0.5c-0.1,0.2-0.2,0.4-0.2,0.7c0,0.3-0.1,0.7-0.1,1.3
		C186.5,45.9,186.5,59.1,186.5,59.1z"/>
	<path class="st2" d="M201.1,42v1c-0.3,0.1-0.6,0.2-0.8,0.3c-0.2,0.1-0.4,0.3-0.5,0.5c-0.1,0.2-0.2,0.5-0.2,0.8c0,0.3,0,0.7,0,1.2
		v15.3h2.8c0.5,0,1-0.1,1.3-0.3c0.3-0.2,0.6-0.5,0.9-0.9c0.2-0.4,0.4-0.9,0.6-1.5c0.2-0.6,0.3-1.2,0.4-1.7h1.9l-0.3,6.2h-13.5v-1
		c0.4-0.1,0.6-0.2,0.8-0.3c0.2-0.1,0.4-0.3,0.5-0.5c0.1-0.2,0.2-0.5,0.2-0.8c0-0.3,0-0.7,0-1.2V45.9c0-0.5,0-0.9,0-1.2
		c0-0.3-0.1-0.6-0.2-0.8c-0.1-0.2-0.3-0.4-0.5-0.5c-0.2-0.1-0.5-0.2-0.8-0.3v-1L201.1,42L201.1,42z"/>
	<path class="st2" d="M220,42v1c-0.3,0.1-0.6,0.2-0.8,0.3c-0.2,0.1-0.4,0.3-0.5,0.5c-0.1,0.2-0.2,0.5-0.2,0.8c0,0.3,0,0.7,0,1.2
		v15.3h2.8c0.5,0,1-0.1,1.3-0.3c0.3-0.2,0.6-0.5,0.9-0.9c0.2-0.4,0.4-0.9,0.6-1.5c0.2-0.6,0.3-1.2,0.4-1.7h1.9l-0.3,6.2h-13.5v-1
		c0.4-0.1,0.6-0.2,0.8-0.3c0.2-0.1,0.4-0.3,0.5-0.5c0.1-0.2,0.2-0.5,0.2-0.8c0-0.3,0-0.7,0-1.2V45.9c0-0.5,0-0.9,0-1.2
		c0-0.3-0.1-0.6-0.2-0.8c-0.1-0.2-0.3-0.4-0.5-0.5c-0.2-0.1-0.5-0.2-0.8-0.3v-1L220,42L220,42z"/>
	<path class="st2" d="M237.4,59.1c0,0.4,0,0.7,0,1c0,0.3,0.1,0.6,0.1,0.8c0.1,0.2,0.1,0.4,0.2,0.5c0.1,0.1,0.3,0.2,0.4,0.3
		c0.2,0.1,0.4,0.2,0.7,0.3v1h-7.5v-1c0.4-0.1,0.6-0.2,0.8-0.3c0.2-0.1,0.4-0.3,0.5-0.5c0.1-0.2,0.2-0.5,0.2-0.8c0-0.3,0-0.7,0-1.2
		V45.8c0-0.5,0-0.9,0-1.2c0-0.3-0.1-0.6-0.2-0.8c-0.1-0.2-0.3-0.4-0.5-0.5c-0.2-0.1-0.5-0.2-0.8-0.3v-1h7.5v1
		c-0.4,0.1-0.7,0.2-0.9,0.4c-0.2,0.1-0.3,0.3-0.4,0.5c-0.1,0.2-0.2,0.4-0.2,0.7c0,0.3-0.1,0.7-0.1,1.3
		C237.4,45.9,237.4,59.1,237.4,59.1z"/>
	<path class="st2" d="M254.7,56.5h-6.1l-0.5,1.5c-0.1,0.4-0.2,0.8-0.3,1.2c-0.1,0.4-0.1,0.8-0.1,1.2c0,1,0.5,1.5,1.5,1.6v1h-6.1v-1
		c0.4,0,0.7-0.2,0.9-0.4c0.3-0.2,0.5-0.5,0.7-0.9c0.2-0.4,0.4-0.9,0.7-1.7l5.9-17.1h3.8l4.7,17.2c0.2,0.8,0.4,1.3,0.5,1.6
		c0.1,0.3,0.3,0.6,0.6,0.8c0.2,0.2,0.5,0.3,1,0.4v1H254v-1c0.5-0.1,0.9-0.2,1.1-0.4c0.2-0.2,0.4-0.6,0.4-1c0-0.3,0-0.7-0.1-1.1
		c-0.1-0.4-0.2-0.9-0.3-1.5L254.7,56.5L254.7,56.5z M249.2,54.7h5.1L252,46L249.2,54.7z"/>
	<path class="st2" d="M288.3,43c-0.5,0.2-0.8,0.3-1,0.5s-0.3,0.4-0.4,0.7c-0.1,0.3-0.1,0.8-0.1,1.6v13.3c0,0.6,0,1.1,0.1,1.5
		c0.1,0.4,0.2,0.6,0.3,0.8c0.2,0.2,0.5,0.4,1.1,0.5v1H281v-1c0.4-0.1,0.7-0.2,0.9-0.3c0.2-0.1,0.3-0.2,0.4-0.4
		c0.1-0.1,0.2-0.4,0.2-0.7c0-0.3,0.1-0.8,0.1-1.5v-7.5c0-0.8,0-1.8,0-2.9c0-1.1,0.1-1.9,0.1-2.4h-0.3c-0.1,0.4-0.2,0.8-0.4,1.2
		c-0.1,0.4-0.4,1.1-0.7,2.1l-3.8,11.1H275l-4-12.5c-0.2-0.7-0.4-1.4-0.6-2.1h-0.3c0.1,1.7,0.1,3.7,0.1,6v7.1c0,0.8,0,1.3,0.1,1.6
		c0.1,0.3,0.2,0.5,0.4,0.7c0.2,0.2,0.5,0.4,1,0.5v1h-5.4v-1c0.4-0.1,0.6-0.2,0.8-0.3c0.2-0.1,0.4-0.3,0.5-0.5
		c0.1-0.2,0.2-0.5,0.2-0.8c0-0.3,0-0.7,0-1.2V45.8c0-0.8,0-1.3-0.1-1.6c-0.1-0.3-0.2-0.5-0.4-0.7c-0.2-0.2-0.5-0.4-1.1-0.5v-1h7.1
		l3.9,12.6l4.3-12.6h6.7L288.3,43L288.3,43z"/>
	<path class="st2" d="M320.1,42v1c-0.3,0.1-0.6,0.2-0.8,0.3c-0.2,0.1-0.4,0.3-0.5,0.5c-0.1,0.2-0.2,0.5-0.2,0.8c0,0.3,0,0.7,0,1.2
		v15.3h2.8c0.5,0,1-0.1,1.3-0.3c0.3-0.2,0.6-0.5,0.9-0.9s0.4-0.9,0.6-1.5c0.2-0.6,0.3-1.2,0.4-1.7h1.9l-0.3,6.2h-13.5v-1
		c0.4-0.1,0.6-0.2,0.8-0.3c0.2-0.1,0.4-0.3,0.5-0.5c0.1-0.2,0.2-0.5,0.2-0.8c0-0.3,0-0.7,0-1.2V45.9c0-0.5,0-0.9,0-1.2
		c0-0.3-0.1-0.6-0.2-0.8c-0.1-0.2-0.3-0.4-0.5-0.5c-0.2-0.1-0.5-0.2-0.8-0.3v-1L320.1,42L320.1,42z"/>
	<path class="st2" d="M341.6,56.5h-6.1l-0.5,1.5c-0.1,0.4-0.2,0.8-0.3,1.2c-0.1,0.4-0.1,0.8-0.1,1.2c0,1,0.5,1.5,1.5,1.6v1h-6.1v-1
		c0.4,0,0.7-0.2,0.9-0.4c0.3-0.2,0.5-0.5,0.7-0.9c0.2-0.4,0.4-0.9,0.7-1.7l5.9-17.1h3.8l4.7,17.2c0.2,0.8,0.4,1.3,0.5,1.6
		c0.1,0.3,0.3,0.6,0.6,0.8c0.2,0.2,0.5,0.3,1,0.4v1H341v-1c0.5-0.1,0.9-0.2,1.1-0.4c0.2-0.2,0.4-0.6,0.4-1c0-0.3,0-0.7-0.1-1.1
		c-0.1-0.4-0.2-0.9-0.3-1.5L341.6,56.5L341.6,56.5z M336.1,54.7h5.1L339,46L336.1,54.7z"/>
	<path class="st2" d="M373.6,47.3c0.1-0.5,0.2-0.9,0.3-1.4c0.1-0.5,0.1-0.9,0.1-1.2c0-0.5-0.1-0.9-0.4-1.2c-0.2-0.3-0.6-0.4-1.1-0.4
		v-1h5.9v1c-0.4,0.1-0.6,0.2-0.9,0.4c-0.2,0.2-0.4,0.5-0.6,0.9c-0.2,0.4-0.4,1-0.7,1.9L371,63.1h-3.4l-3.2-14.4l-3.8,14.4H357
		l-4.3-17.2c-0.2-0.8-0.4-1.4-0.6-1.8c-0.2-0.3-0.3-0.6-0.5-0.7c-0.2-0.2-0.4-0.3-0.8-0.4v-1h7.6v1c-0.5,0.1-0.9,0.2-1.1,0.4
		c-0.2,0.2-0.4,0.6-0.4,1c0,0.5,0.1,1.4,0.4,2.5l2.5,10.7L364,42h3.2l3.3,15.7L373.6,47.3L373.6,47.3z"/>
	<path class="st2" d="M390.2,63h-7.5v-1c0.4-0.1,0.6-0.2,0.8-0.3s0.4-0.3,0.5-0.5c0.1-0.2,0.2-0.5,0.2-0.8c0-0.3,0-0.7,0-1.2V45.9
		c0-0.5,0-0.9,0-1.2c0-0.3-0.1-0.6-0.2-0.8c-0.1-0.2-0.3-0.4-0.5-0.5c-0.2-0.1-0.5-0.2-0.8-0.3v-1h8.3c1.1,0,2.1,0.1,2.8,0.3
		c0.8,0.2,1.5,0.4,2.1,0.8c0.5,0.3,0.9,0.6,1.2,1.1c0.3,0.4,0.6,0.9,0.8,1.5c0.2,0.6,0.3,1.3,0.3,2c0,1-0.2,1.9-0.5,2.6
		c-0.3,0.7-0.8,1.3-1.3,1.8c-0.6,0.5-1.3,0.9-2.2,1.3v0.2c0.7,0.3,1.3,0.8,1.7,1.3c0.5,0.5,0.9,1.2,1.2,2.1l0.9,2.1
		c0.4,0.9,0.8,1.6,1.2,2.1c0.4,0.5,0.9,0.8,1.4,0.9v1h-5.5c-0.5-0.8-1.2-2-1.9-3.7l-1.1-2.6c-0.3-0.8-0.6-1.3-0.9-1.7
		c-0.2-0.3-0.5-0.6-0.7-0.7c-0.3-0.1-0.6-0.2-1.2-0.2h-0.8v5c0,0.8,0,1.3,0.1,1.6c0.1,0.3,0.2,0.6,0.4,0.7c0.2,0.2,0.5,0.3,1.1,0.5
		L390.2,63L390.2,63z M388.7,43.8v8.5h1.4c0.8,0,1.4-0.1,1.9-0.3c0.5-0.2,0.9-0.5,1.2-0.9c0.3-0.4,0.5-0.9,0.6-1.4
		c0.1-0.5,0.2-1.1,0.2-1.8c0-1.4-0.3-2.4-0.9-3.1c-0.6-0.7-1.5-1-2.7-1C389.5,43.8,388.9,43.8,388.7,43.8L388.7,43.8z"/>
	<path class="st2" d="M419,42v4.9H417c-0.3-1-0.6-1.6-0.8-2c-0.2-0.3-0.5-0.6-0.8-0.8c-0.3-0.2-0.8-0.3-1.5-0.3h-3.1v7.4h1.9
		c0.4,0,0.7-0.1,1-0.2c0.2-0.1,0.4-0.3,0.6-0.6c0.2-0.3,0.3-0.8,0.4-1.4h1.6v6.2h-1.6c-0.1-0.6-0.3-1-0.4-1.4
		c-0.2-0.3-0.4-0.5-0.6-0.7c-0.2-0.1-0.6-0.2-1-0.2h-1.9v8.2h3.1c0.3,0,0.6,0,0.8-0.1c0.2,0,0.4-0.1,0.6-0.2
		c0.2-0.1,0.4-0.3,0.5-0.5c0.2-0.2,0.3-0.4,0.4-0.6c0.1-0.2,0.3-0.5,0.4-0.9c0.1-0.4,0.3-0.9,0.5-1.5h1.9l-0.3,5.6h-14v-1
		c0.4-0.1,0.6-0.2,0.8-0.3s0.4-0.3,0.5-0.5c0.1-0.2,0.2-0.5,0.2-0.8c0-0.3,0-0.7,0-1.2V45.9c0-0.5,0-0.9,0-1.2
		c0-0.3-0.1-0.6-0.2-0.8c-0.1-0.2-0.3-0.4-0.5-0.5c-0.2-0.1-0.5-0.2-0.8-0.3v-1H419L419,42z"/>
	<path class="st2" d="M441.8,42v1c-0.4,0.1-0.6,0.2-0.8,0.3c-0.2,0.1-0.3,0.2-0.4,0.4c-0.1,0.2-0.2,0.4-0.2,0.7
		c-0.1,0.3-0.1,0.8-0.1,1.4V63h-3.6l-6.4-12c-0.9-1.6-1.5-2.9-1.9-3.8h-0.1c0.1,2.2,0.1,4.5,0.1,7v5c0,0.8,0,1.3,0.1,1.6
		c0.1,0.3,0.2,0.6,0.4,0.7c0.2,0.2,0.5,0.3,1,0.5v1h-5.4v-1c0.4-0.1,0.6-0.2,0.8-0.3c0.2-0.1,0.4-0.3,0.5-0.5
		c0.1-0.2,0.2-0.5,0.2-0.8c0-0.3,0-0.7,0-1.2V45.8c0-0.8,0-1.3-0.1-1.6c-0.1-0.3-0.2-0.5-0.4-0.7c-0.2-0.2-0.5-0.4-1-0.5v-1h5.8
		l5,9.5c0.3,0.6,0.7,1.4,1.2,2.4c0.5,1,0.9,2,1.3,2.9h0.2c-0.1-2.4-0.2-5.1-0.2-8v-2.9c0-0.7,0-1.1-0.1-1.4c0-0.3-0.1-0.5-0.2-0.7
		c-0.1-0.2-0.2-0.3-0.4-0.4c-0.2-0.1-0.4-0.2-0.8-0.3v-1C436.5,42,441.8,42,441.8,42z"/>
	<path class="st2" d="M461.4,42.5v4.5h-1.9c-0.2-1.2-0.6-2-1.1-2.6c-0.5-0.5-1.1-0.8-1.9-0.8c-1.5,0-2.6,0.8-3.4,2.3
		c-0.8,1.6-1.2,3.9-1.2,6.9c0,2.8,0.4,5,1.1,6.5c0.7,1.5,1.7,2.2,3.1,2.2c0.7,0,1.3-0.1,1.7-0.4c0.4-0.3,0.8-0.6,1-1.1
		c0.3-0.5,0.5-1.2,0.7-2.1h1.9v4.7c-1,0.3-2,0.5-2.9,0.6c-0.9,0.1-1.8,0.2-2.7,0.2c-2,0-3.6-0.4-4.8-1.2c-1.2-0.8-2.2-1.9-2.8-3.5
		c-0.6-1.6-0.9-3.5-0.9-5.9c0-2.2,0.3-4.2,1-5.8c0.7-1.6,1.7-2.9,3.1-3.8c1.4-0.9,3-1.3,4.9-1.3c1,0,1.8,0.1,2.6,0.2
		C459.7,42,460.5,42.2,461.4,42.5L461.4,42.5z"/>
	<path class="st2" d="M480.9,42v4.9H479c-0.3-1-0.6-1.6-0.8-2c-0.2-0.3-0.5-0.6-0.8-0.8c-0.3-0.2-0.8-0.3-1.5-0.3h-3.1v7.4h1.9
		c0.4,0,0.7-0.1,1-0.2s0.4-0.3,0.6-0.6c0.2-0.3,0.3-0.8,0.4-1.4h1.6v6.2h-1.6c-0.1-0.6-0.3-1-0.4-1.4c-0.2-0.3-0.4-0.5-0.6-0.7
		c-0.2-0.1-0.6-0.2-1-0.2h-1.9v8.2h3.1c0.3,0,0.6,0,0.8-0.1c0.2,0,0.4-0.1,0.6-0.2c0.2-0.1,0.4-0.3,0.5-0.5c0.2-0.2,0.3-0.4,0.4-0.6
		c0.1-0.2,0.3-0.5,0.4-0.9c0.1-0.4,0.3-0.9,0.5-1.5h1.9l-0.3,5.6h-14v-1c0.4-0.1,0.6-0.2,0.8-0.3s0.4-0.3,0.5-0.5
		c0.1-0.2,0.2-0.5,0.2-0.8c0-0.3,0-0.7,0-1.2V45.9c0-0.5,0-0.9,0-1.2c0-0.3-0.1-0.6-0.2-0.8c-0.1-0.2-0.3-0.4-0.5-0.5
		c-0.2-0.1-0.5-0.2-0.8-0.3v-1H480.9L480.9,42z"/>
	<path class="st2" d="M163.6,74.4v2.8h-7.8v4.7h6.2v2.7h-6.2V92h-3.7V74.4H163.6L163.6,74.4z"/>
	<path class="st2" d="M187.8,74.1c1.7,0,3.3,0.4,4.7,1.1c1.4,0.8,2.5,1.8,3.3,3.2c0.8,1.4,1.2,2.9,1.2,4.7s-0.4,3.3-1.2,4.7
		s-1.9,2.5-3.3,3.2c-1.4,0.8-3,1.1-4.7,1.1s-3.3-0.4-4.7-1.1c-1.4-0.8-2.5-1.8-3.3-3.2s-1.2-2.9-1.2-4.7c0-1.7,0.4-3.3,1.2-4.7
		c0.8-1.4,1.9-2.4,3.3-3.2C184.5,74.5,186.1,74.1,187.8,74.1z M187.8,77.4c-1.1,0-2,0.2-2.9,0.7c-0.8,0.5-1.5,1.1-1.9,2
		c-0.5,0.9-0.7,1.9-0.7,3.1s0.2,2.2,0.7,3.1c0.5,0.9,1.1,1.5,1.9,2c0.8,0.5,1.8,0.7,2.9,0.7c1.1,0,2-0.2,2.9-0.7
		c0.8-0.5,1.5-1.1,1.9-2c0.5-0.9,0.7-1.9,0.7-3.1s-0.2-2.2-0.7-3.1c-0.5-0.9-1.1-1.5-1.9-2C189.8,77.6,188.9,77.4,187.8,77.4z"/>
	<path class="st2" d="M216.4,74.4v10.3c0,1.4,0.3,2.4,1,3.1c0.6,0.7,1.6,1,2.8,1c1.2,0,2.1-0.3,2.7-1c0.6-0.7,1-1.7,1-3.1V74.4h3.7
		v10.3c0,1.6-0.3,3-1,4.1s-1.5,2-2.6,2.5c-1.1,0.5-2.4,0.8-3.8,0.8c-2.2,0-4-0.6-5.3-1.9c-1.3-1.3-2-3.1-2-5.6V74.4H216.4
		L216.4,74.4z"/>
	<path class="st2" d="M259.4,92h-3.7l-8.3-12v12h-3.7V74.4h3.7l8.3,12.1V74.4h3.7V92z"/>
	<path class="st2" d="M292.1,83.2c0,1.7-0.4,3.3-1.2,4.6c-0.8,1.3-1.9,2.4-3.3,3.1c-1.5,0.7-3.2,1.1-5.2,1.1h-6.6V74.4h6.6
		c2,0,3.7,0.4,5.2,1.1c1.5,0.7,2.6,1.7,3.3,3.1C291.7,79.9,292.1,81.4,292.1,83.2z M282.1,88.9c2,0,3.5-0.5,4.6-1.5
		c1.1-1,1.6-2.4,1.6-4.2c0-1.8-0.5-3.2-1.6-4.2c-1.1-1-2.6-1.5-4.6-1.5h-2.6v11.4H282.1z"/>
	<path class="st2" d="M319.2,88.5h-7.4l-1.3,3.5h-3.9l6.8-17.4h4.2l6.8,17.4h-3.9L319.2,88.5L319.2,88.5z M318.2,85.8l-2.7-7.4
		l-2.7,7.4H318.2z"/>
	<path class="st2" d="M352,74.4v2.8h-5.1V92h-3.7V77.2h-5.1v-2.8C338.1,74.4,352,74.4,352,74.4z"/>
	<rect x="367.1" y="74.4" class="st2" width="3.7" height="17.6"/>
	<path class="st2" d="M395.8,74.1c1.7,0,3.3,0.4,4.7,1.1c1.4,0.8,2.5,1.8,3.3,3.2c0.8,1.4,1.2,2.9,1.2,4.7s-0.4,3.3-1.2,4.7
		c-0.8,1.4-1.9,2.5-3.3,3.2c-1.4,0.8-3,1.1-4.7,1.1c-1.7,0-3.3-0.4-4.7-1.1c-1.4-0.8-2.5-1.8-3.3-3.2c-0.8-1.4-1.2-2.9-1.2-4.7
		c0-1.7,0.4-3.3,1.2-4.7c0.8-1.4,1.9-2.4,3.3-3.2C392.6,74.5,394.1,74.1,395.8,74.1z M395.8,77.4c-1.1,0-2,0.2-2.9,0.7
		c-0.8,0.5-1.5,1.1-1.9,2c-0.5,0.9-0.7,1.9-0.7,3.1s0.2,2.2,0.7,3.1c0.5,0.9,1.1,1.5,1.9,2c0.8,0.5,1.8,0.7,2.9,0.7
		c1.1,0,2-0.2,2.9-0.7c0.8-0.5,1.5-1.1,1.9-2c0.5-0.9,0.7-1.9,0.7-3.1s-0.2-2.2-0.7-3.1c-0.5-0.9-1.1-1.5-1.9-2
		C397.9,77.6,396.9,77.4,395.8,77.4z"/>
	<path class="st2" d="M436.6,92h-3.7l-8.3-12v12h-3.7V74.4h3.7l8.3,12.1V74.4h3.7V92z"/>
</g>
</svg>
