<svg xmlns="http://www.w3.org/2000/svg" xmlns:xlink="http://www.w3.org/1999/xlink" id="Layer_1" x="0px" y="0px" viewBox="0 0 128 128" style="enable-background:new 0 0 128 128;" xml:space="preserve">
<style type="text/css">
	.st0{fill:url(#SVGID_1_);}
</style>
<linearGradient id="SVGID_1_" gradientUnits="userSpaceOnUse" x1="14.5288" y1="64" x2="113.4712" y2="64">
	<stop offset="0" style="stop-color:#FFAD56"></stop>
	<stop offset="1" style="stop-color:#FF5B00"></stop>
</linearGradient>
<path class="st0" d="M113.5,2.9c0-0.6-0.2-1.2-0.6-1.6c-0.4-0.4-1-0.7-1.6-0.7c-1.1,0-2.1,0.9-2.1,2c-0.4,8-4.3,15.4-10.5,20.4  c1.6-2.9,2.4-6.1,2.4-9.4V9.9c0-1.2-1-2.1-2.1-2.1c-1.2,0-2.1,1-2.1,2.1v3.7c0,5-2.5,9.8-6.6,12.7c0.2-0.7,0.2-1.4,0.2-2.1v-5.4  c0-1.2-1-2.1-2.1-2.1c-1.2,0-2.1,1-2.1,2.1v5.4c0,1.3-0.5,2.6-1.5,3.5c-1,0.9-2.2,1.4-3.6,1.4c-2.6-0.1-4.7-2.4-4.7-5v-5.3  c0-1.2-1-2.1-2.1-2.1c-1.2,0-2.1,1-2.1,2.1v5.4c0,0.7,0.1,1.4,0.2,2.1c-4.1-2.9-6.6-7.6-6.6-12.7V9.9c0-1.2-1-2.1-2.1-2.1  c-1.2,0-2.1,1-2.1,2.1v3.7c0,3.3,0.8,6.6,2.4,9.4c-6.2-5-10.1-12.4-10.5-20.4c-0.1-1.1-1-2-2.1-2c-0.6,0-1.1,0.2-1.6,0.7  c-0.4,0.4-0.6,1-0.6,1.6c0.7,12.3,8.4,23.1,19.5,27.9c-3.5-0.3-6.6,1.2-6.8,1.3l-1.6,0.8l0.5,1.7c0.1,0.2,1.7,5.6,6,7.6  c1.7,0.8,3.4,1.2,5,1.2l0.5,4c0,1-0.1,1.9-0.4,2.8l-1.7,4.4c-1.1,2.9-4,4.9-7.1,4.9H47.1c-0.6,0-1.1,0.2-1.5,0.6s-0.6,1-0.6,1.6  c0,1.1,1,2.1,2.2,2.1h15.7c4.9,0,9.3-3.1,11.1-7.7l0.8-2.1c1.6,1.8,3.6,2.8,5.6,2.8h2c1.2,0,2.3-0.3,3.4-1v15c0,1.6-0.2,2.9-0.5,4.1  c-0.5,1.5-1.2,2.8-2.4,4c-0.9,1-2.1,1.9-3.6,2.8l0.9-2.2c0.2-0.5,0.5-0.9,0.9-1.2c2.2-2,3.5-4.9,3.5-8v-2.8c0-0.6-0.2-1.1-0.7-1.5  c-0.4-0.4-0.9-0.6-1.6-0.6c-1.1,0-2.1,1-2.1,2.2v3c0,1.7-0.7,3.4-2,4.5c-0.9,0.8-1.5,1.7-2,2.8L72,87.8c-0.7,1.1-1.2,2.3-1.5,3.4  l-14.3,31.8h-1.4l5.5-12.5c2.7-5,3-10.8,3.1-12.5c0-0.6-0.2-1.3-0.7-1.7c-1-1.1-2.7-3.5-3.3-7c0-0.1,0-0.3-0.1-0.4  c-0.3-2.6,0.1-4.8,0.6-6.2c0.3-1,0-2.2-0.8-2.9c-0.8-0.7-2-0.8-3-0.3c-0.6,0.3-1.2,0.7-1.9,0.9c-3.3,1.5-7.3,2.2-12.3,2.2  c-3,0-5.9-0.7-8.7-2c-0.8-0.4-1.7-0.3-2.5,0.1c-0.8,0.4-1.2,1.2-1.3,2.1c0,0.6-0.1,1.2-0.2,1.8c-0.1,1.1-0.3,2.2-0.6,3.3  c-0.7,2.9-1.9,5.1-3.3,6.2c-2.3,1.8-3.8,4.3-4.2,7.1l0,0.1c-0.1,0.5-0.1,1-0.1,1.6v20h-0.8v-12.6l-1.6-13.1c0-0.3,0-0.5,0-0.6  c2.6-1.9,3.9-4.9,3.9-8.9v-0.3l-2-6.2l-0.5-2.5c-0.7-3.9,0.4-7.9,3-10.8c2.4-2.7,5.9-4.2,9.6-4.2h5.1c0.6,0,1.1-0.2,1.5-0.6  c0.4-0.4,0.6-1,0.6-1.6c0-1.1-1-2.1-2.2-2.1h-5.2c-1.9,0-3.8,0.3-5.6,0.9V55c0-1.1-0.6-2.1-1.6-2.5c-1-0.5-2.3-0.4-3.2,0.4  c-4.1,3.3-6.4,7.9-6.4,12.7l0,8.4c-0.3,1.9-0.2,3.8,0.1,5.6l0.5,2.8l1.9,5.8c-0.1,2.5-0.8,4.3-2.2,5.2c-0.7,0.5-1.9,1.8-1.5,4.5  l1.5,12.8v16.7h9.8c0.6,0,1.1-0.2,1.5-0.7c0.4-0.4,0.6-0.9,0.6-1.5l0.6,2.2h9.2c0.6,0,1.1-0.2,1.5-0.6c0.4-0.4,0.6-1,0.6-1.6  c0-1.1-1-2.1-2.2-2.1h-1.2l-4.9-18.2c0.1-1.9,1-3.6,2.6-4.8c2.1-1.6,3.6-3.9,4.4-6.9c1.8,0.3,3.6,0.5,5.4,0.5  c5.6,0,9.3-0.7,11.6-1.3c0.8,2.8,2.2,5,3.3,6.3c-0.1,1.9-0.5,6.2-2.6,9.9l-8.3,18.8h13c0.6,0,1.1-0.2,1.5-0.7c0.4-0.4,0.6-1,0.6-1.6  c0-1.1-1-2.1-2.2-2.1H61l9.2-20.5l2.7,24.8h9.9c0.6,0,1.1-0.2,1.5-0.6c0.4-0.4,0.6-1,0.6-1.6c0-1.1-1-2.1-2.2-2.1h-0.5L80.9,100  l5.4-18.5c1.4-1.6,2.4-3.3,3-5.4c0.5-1.6,0.7-3.4,0.7-5.4V50.3c0.3-1,0.5-1.9,0.6-2.8l0.5-4.1c1.6,0,3.4-0.5,5.1-1.2  c4.4-2,5.9-7.4,6-7.6l0.5-1.7l-1.6-0.8c-0.2-0.1-3.5-1.7-7.1-1.2C105.2,26,112.8,15.3,113.5,2.9z M91.8,36.2  c0.4-0.3,0.9-0.5,1.4-0.7c1.3-0.6,2.9-0.4,4.1-0.1c-0.6,1.1-1.5,2.4-2.8,3c-0.9,0.4-1.9,0.7-2.8,0.8l0.2-1.6  C91.8,37,91.8,36.6,91.8,36.2z M71.1,39.1c-0.9-0.1-1.9-0.4-2.8-0.8c-1.3-0.6-2.2-1.9-2.8-3c1.2-0.3,2.8-0.4,4.1,0.1  c0.5,0.2,1,0.5,1.4,0.8c-0.1,0.4-0.1,0.8-0.1,1.2L71.1,39.1z M81.4,48.3c1.6,0,3.1,1.1,3.5,2.6c-0.8,1-1.7,1.5-2.5,1.5h-2  c-0.8,0-1.7-0.5-2.5-1.5C78.3,49.4,79.7,48.3,81.4,48.3z M87.5,37.2l-1,8.7c-1.4-1.2-3.3-1.9-5.1-1.9c-1.9,0-3.7,0.7-5.2,1.9l-1-8.7  c0-1,0.4-2,1.1-2.7c0.7-0.7,1.7-1.1,2.7-1.1h4.8c1,0,2,0.4,2.7,1.1C87.2,35.3,87.6,36.2,87.5,37.2z M76.7,123.1l-2.3-20.4v-8.6  c0-0.4,0.1-0.9,0.2-1.4l1.4-3.1c0.2-0.2,0.3-0.4,0.5-0.6c0.6-0.7,1.3-1.3,2-1.7l0.9-0.6c0.4-0.2,0.8-0.4,1.1-0.6l-4,13.5l1.3,23.6  H76.7z M55.1,88.1c-2.2,0.6-5.6,1.3-10.9,1.3c-2.6,0-5.2-0.4-7.7-1.1c-1-0.3-2-0.6-3.1-1c0.1-0.6,0.2-1.2,0.3-1.8  c2.7,1,5.5,1.5,8.4,1.5c5.2,0,9.5-0.7,13.1-2.2C55.1,85.9,55,87,55.1,88.1z M31.8,96.7c-2.7,2.1-4.3,5.2-4.3,8.5v0.2l4.7,17.7h-0.3  l-6.3-21.5c0.3-1.5,1.2-3,2.5-4c1.8-1.4,3.1-3.4,4.1-6.2c0.8,0.3,1.5,0.6,2.3,0.8C34,94.2,33.1,95.7,31.8,96.7z M20.1,65  c0.1-2.4,1-4.7,2.6-6.7v4.3C21.8,63.3,20.9,64.1,20.1,65z M25.9,123.1h-0.4v-6.8l2.3,7.8C27.4,123.5,26.7,123.1,25.9,123.1z"></path>
</svg>