<svg xmlns="http://www.w3.org/2000/svg" xmlns:xlink="http://www.w3.org/1999/xlink" id="Layer_1" x="0px" y="0px" viewBox="0 0 128 128" style="enable-background:new 0 0 128 128;" xml:space="preserve">
<style type="text/css">
	.st0{fill:url(#SVGID_1_);}
	.st1{fill:url(#SVGID_2_);}
	.st2{fill:url(#SVGID_3_);}
</style>
<g>
	<linearGradient id="SVGID_1_" gradientUnits="userSpaceOnUse" x1="8.1871" y1="64" x2="119.8129" y2="64">
		<stop offset="0" style="stop-color:#FFAD56"></stop>
		<stop offset="1" style="stop-color:#FF5B00"></stop>
	</linearGradient>
	<path class="st0" d="M64,8.2c-10.8,0-21.2,3.1-30.3,8.9c-1.7,1.1-2.2,3.4-1.1,5.1c1.1,1.7,3.4,2.2,5.1,1.1c7.8-5,16.9-7.7,26.2-7.7   c26.7,0,48.4,21.7,48.4,48.4c0,26.7-21.7,48.4-48.4,48.4c-26.7,0-48.4-21.7-48.4-48.4c0-9.3,2.6-18.2,7.6-26c1.1-1.7,0.6-4-1.1-5.1   c-1.7-1.1-4-0.6-5.1,1.1c-5.7,9-8.8,19.3-8.8,30c0,30.8,25,55.8,55.8,55.8c30.8,0,55.8-25,55.8-55.8C119.8,33.2,94.8,8.2,64,8.2z"></path>
	<linearGradient id="SVGID_2_" gradientUnits="userSpaceOnUse" x1="23.0738" y1="64.002" x2="104.9262" y2="64.002">
		<stop offset="0" style="stop-color:#FFAD56"></stop>
		<stop offset="1" style="stop-color:#FF5B00"></stop>
	</linearGradient>
	<path class="st1" d="M95.2,84.7c1.8,1,4.1,0.3,5-1.5c3.1-5.8,4.7-12.5,4.7-19.1c0-22.6-18.4-40.9-40.9-40.9   c-22.6,0-40.9,18.4-40.9,40.9c0,22.6,18.4,40.9,40.9,40.9c6.6,0,13.1-1.6,18.8-4.6c1.8-0.9,2.5-3.2,1.6-5c-0.9-1.8-3.2-2.5-5-1.6   c-4.8,2.5-10,3.8-15.4,3.8c-18.5,0-33.5-15-33.5-33.5c0-18.5,15-33.5,33.5-33.5c18.5,0,33.5,15,33.5,33.5c0,5.5-1.3,10.9-3.9,15.6   C92.7,81.5,93.4,83.7,95.2,84.7z"></path>
	<linearGradient id="SVGID_3_" gradientUnits="userSpaceOnUse" x1="52.4756" y1="64.0025" x2="75.5294" y2="64.0025">
		<stop offset="0" style="stop-color:#FFAD56"></stop>
		<stop offset="1" style="stop-color:#FF5B00"></stop>
	</linearGradient>
	<path class="st2" d="M64,52.1c2.3,0,4.1,1.8,4.1,4.1c0,2.1,1.7,3.7,3.7,3.7c2,0,3.7-1.7,3.7-3.7c0-5-3.3-9.3-7.8-10.9v-2.1   c0-2-1.7-3.7-3.7-3.7c-2.1,0-3.7,1.7-3.7,3.7v2.1c-4.5,1.6-7.8,5.8-7.8,10.9c0,6.4,5.2,11.5,11.5,11.5c2.3,0,4.1,1.8,4.1,4.1   c0,2.3-1.8,4.1-4.1,4.1c-2.3,0-4.1-1.8-4.1-4.1c0-2.1-1.7-3.7-3.7-3.7c-2.1,0-3.7,1.7-3.7,3.7c0,5,3.3,9.3,7.8,10.9v2.1   c0,2.1,1.7,3.7,3.7,3.7c2.1,0,3.7-1.7,3.7-3.7v-2.1c4.5-1.6,7.8-5.8,7.8-10.9c0-6.4-5.2-11.5-11.5-11.5c-2.3,0-4.1-1.8-4.1-4.1   C59.9,53.9,61.7,52.1,64,52.1z"></path>
</g>
</svg>