<svg xmlns="http://www.w3.org/2000/svg" xmlns:xlink="http://www.w3.org/1999/xlink" id="Layer_1" x="0px" y="0px" viewBox="0 0 128 128" style="enable-background:new 0 0 128 128;" xml:space="preserve">
<style type="text/css">
	.st0{fill:url(#SVGID_1_);}
</style>
<g id="trees">
	<linearGradient id="SVGID_1_" gradientUnits="userSpaceOnUse" x1="14.9419" y1="64" x2="113.0581" y2="64">
		<stop offset="0" style="stop-color:#FFAD56"></stop>
		<stop offset="1" style="stop-color:#FF5B00"></stop>
	</linearGradient>
	<path class="st0" d="M112.8,78L91,24.8c-0.6-1.5-2.3-2.2-3.7-1.6c-0.7,0.3-1.3,0.9-1.6,1.6l-4.6,11.3c-0.6,1.5,0.1,3.1,1.6,3.7   c1.5,0.6,3.1-0.1,3.7-1.6l2-4.8l17.6,42.9H94.2L66.8,9.5c-0.2-1.6-1.7-2.6-3.2-2.4c-1.2,0.2-2.2,1.2-2.4,2.4L33.8,76.3H22.1   l17.6-42.9l2,4.8c0.6,1.5,2.3,2.1,3.7,1.5c1.4-0.6,2.1-2.3,1.6-3.7l-4.6-11.3c-0.6-1.5-2.3-2.2-3.7-1.6c-0.7,0.3-1.3,0.9-1.6,1.6   L15.2,78c-0.6,1.5,0.1,3.1,1.6,3.7c0.3,0.1,0.7,0.2,1.1,0.2h43.3v22.9c-6.8,0.2-13.5,1.2-20,3V87.6c0-1.6-1.3-2.9-2.9-2.9   c-1.6,0-2.9,1.3-2.9,2.9v22c-4.7,1.6-9.3,3.6-13.7,6c-1.4,0.7-1.9,2.5-1.2,3.9c0.7,1.4,2.5,1.9,3.9,1.2c0,0,0,0,0,0   c24.6-13.4,54.3-13.4,78.9-0.1c1.4,0.7,3.1,0.2,3.9-1.2c0.7-1.4,0.2-3.1-1.1-3.9c-4.3-2.4-8.9-4.3-13.5-5.9v-22   c0-1.6-1.3-2.9-2.9-2.9s-2.9,1.3-2.9,2.9v20.3c-6.5-1.7-13.3-2.7-20-3V82h43.3c1.6,0,2.9-1.3,2.9-2.9C113.1,78.8,113,78.4,112.8,78   L112.8,78z M52.6,45.4l8.5,12v13.4L49.6,54.4c-0.1-0.2-0.3-0.3-0.4-0.5L52.6,45.4z M66.9,24.6l5.9,14.5l-5.9,8.4V24.6z M61.1,47.5   l-5.9-8.4l5.9-14.5V47.5z M66.9,57.4l8.5-12l3.5,8.6c-0.2,0.1-0.3,0.3-0.4,0.5L66.9,70.8V57.4z M40,76.3l6.6-16.1L58,76.3H40   L40,76.3z M84.3,76.3H70l11.4-16.1L88,76.3H84.3z"></path>
</g>
</svg>