<svg xmlns="http://www.w3.org/2000/svg" xmlns:xlink="http://www.w3.org/1999/xlink" id="Layer_1" x="0px" y="0px" viewBox="0 0 128 128" style="enable-background:new 0 0 128 128;" xml:space="preserve">
<style type="text/css">
	.st0{fill:url(#SVGID_1_);}
	.st1{fill:url(#SVGID_2_);}
	.st2{fill:url(#SVGID_3_);}
	.st3{fill:url(#SVGID_4_);}
	.st4{fill:url(#SVGID_5_);}
	.st5{fill:url(#SVGID_6_);}
</style>
<g>
	<linearGradient id="SVGID_1_" gradientUnits="userSpaceOnUse" x1="36.4995" y1="80.5219" x2="60.0714" y2="80.5219">
		<stop offset="0" style="stop-color:#FFAD56"></stop>
		<stop offset="1" style="stop-color:#FF5B00"></stop>
	</linearGradient>
	<path class="st0" d="M56.1,92.2c-6.5,0-11.8-5.3-11.8-11.8v-4.9l12.3-7.4c1.5-1.1,2-3.1,1.3-4.8c-0.9-2-3.2-2.9-5.2-2l-14.3,8.6   c-1.2,0.7-1.9,2-1.9,3.4v7.2c0,10.8,8.8,19.6,19.6,19.6c2.2,0,3.9-1.8,3.9-3.9C60.1,94,58.3,92.2,56.1,92.2z"></path>
	<linearGradient id="SVGID_2_" gradientUnits="userSpaceOnUse" x1="5.0705" y1="80.5219" x2="32.5709" y2="80.5219">
		<stop offset="0" style="stop-color:#FFAD56"></stop>
		<stop offset="1" style="stop-color:#FF5B00"></stop>
	</linearGradient>
	<path class="st1" d="M28.6,92.2h-3.9c-6.5,0-11.8-5.3-11.8-11.8v-4.9l12.3-7.4c1.5-1.1,2-3.1,1.3-4.8c-0.9-2-3.2-2.9-5.2-2L7,69.9   c-1.2,0.7-1.9,2-1.9,3.4v7.2c0,10.8,8.8,19.6,19.6,19.6h3.9c2.2,0,3.9-1.8,3.9-3.9C32.6,94,30.8,92.2,28.6,92.2z"></path>
	<linearGradient id="SVGID_3_" gradientUnits="userSpaceOnUse" x1="16.8564" y1="36.4995" x2="44.3568" y2="36.4995">
		<stop offset="0" style="stop-color:#FFAD56"></stop>
		<stop offset="1" style="stop-color:#FF5B00"></stop>
	</linearGradient>
	<path class="st2" d="M40.4,60.1c2.2,0,3.9-1.8,3.9-3.9c0-2.2-1.8-3.9-3.9-3.9c-8.7,0-15.7-7-15.7-15.7s7-15.7,15.7-15.7   c2.2,0,3.9-1.8,3.9-3.9s-1.8-3.9-3.9-3.9c-13,0-23.6,10.6-23.6,23.6S27.4,60.1,40.4,60.1z"></path>
	<linearGradient id="SVGID_4_" gradientUnits="userSpaceOnUse" x1="48.2855" y1="36.4995" x2="95.4291" y2="36.4995">
		<stop offset="0" style="stop-color:#FFAD56"></stop>
		<stop offset="1" style="stop-color:#FF5B00"></stop>
	</linearGradient>
	<path class="st3" d="M71.9,60.1c13,0,23.6-10.6,23.6-23.6S84.9,12.9,71.9,12.9S48.3,23.5,48.3,36.5S58.8,60.1,71.9,60.1z    M71.9,20.8c8.7,0,15.7,7,15.7,15.7s-7,15.7-15.7,15.7s-15.7-7-15.7-15.7S63.2,20.8,71.9,20.8z"></path>
	<linearGradient id="SVGID_5_" gradientUnits="userSpaceOnUse" x1="67.9286" y1="87.5718" x2="122.9295" y2="87.5718">
		<stop offset="0" style="stop-color:#FFAD56"></stop>
		<stop offset="1" style="stop-color:#FF5B00"></stop>
	</linearGradient>
	<path class="st4" d="M95.4,60.1c-15.2,0-27.5,12.3-27.5,27.5s12.3,27.5,27.5,27.5s27.5-12.3,27.5-27.5S110.6,60.1,95.4,60.1z    M95.4,107.2c-10.8,0-19.6-8.8-19.6-19.6s8.8-19.6,19.6-19.6s19.6,8.8,19.6,19.6S106.3,107.2,95.4,107.2z"></path>
	<linearGradient id="SVGID_6_" gradientUnits="userSpaceOnUse" x1="83.6432" y1="87.5718" x2="107.215" y2="87.5718">
		<stop offset="0" style="stop-color:#FFAD56"></stop>
		<stop offset="1" style="stop-color:#FF5B00"></stop>
	</linearGradient>
	<polygon class="st5" points="99.4,75.8 91.5,75.8 91.5,83.6 83.6,83.6 83.6,91.5 91.5,91.5 91.5,99.4 99.4,99.4 99.4,91.5    107.2,91.5 107.2,83.6 99.4,83.6  "></polygon>
</g>
</svg>